<?xml version="1.0" encoding="UTF-8" standalone="no"?>
<svg
   xmlns:dc="http://purl.org/dc/elements/1.1/"
   xmlns:cc="http://creativecommons.org/ns#"
   xmlns:rdf="http://www.w3.org/1999/02/22-rdf-syntax-ns#"
   xmlns:svg="http://www.w3.org/2000/svg"
   xmlns="http://www.w3.org/2000/svg"
   xmlns:sodipodi="http://sodipodi.sourceforge.net/DTD/sodipodi-0.dtd"
   xmlns:inkscape="http://www.inkscape.org/namespaces/inkscape"
   height="260.317"
   width="800.355"
   version="1.0"
   id="svg75"
   sodipodi:docname="Portal2-logo.svg"
   inkscape:version="1.0.2 (e86c870879, 2021-01-15)">
  <metadata
     id="metadata79">
    <rdf:RDF>
      <cc:Work
         rdf:about="">
        <dc:format>image/svg+xml</dc:format>
        <dc:type
           rdf:resource="http://purl.org/dc/dcmitype/StillImage" />
        <dc:title></dc:title>
      </cc:Work>
    </rdf:RDF>
  </metadata>
  <sodipodi:namedview
     pagecolor="#ffffff"
     bordercolor="#666666"
     borderopacity="1"
     objecttolerance="10"
     gridtolerance="10"
     guidetolerance="10"
     inkscape:pageopacity="0"
     inkscape:pageshadow="2"
     inkscape:window-width="1920"
     inkscape:window-height="1021"
     id="namedview77"
     showgrid="false"
     inkscape:zoom="0.75154152"
     inkscape:cx="563.09539"
     inkscape:cy="258.62253"
     inkscape:window-x="900"
     inkscape:window-y="288"
     inkscape:window-maximized="1"
     inkscape:current-layer="svg75" />
  <defs
     id="defs15">
    <filter
       id="c"
       height="1.0972"
       width="1.2777"
       color-interpolation-filters="sRGB"
       y="-.0486009"
       x="-.138850">
      <feGaussianBlur
         stdDeviation="4.6568494"
         id="feGaussianBlur2" />
    </filter>
    <filter
       id="b"
       height="1.31949"
       width="1.05649"
       color-interpolation-filters="sRGB"
       y="-.159745"
       x="-.0282433">
      <feGaussianBlur
         stdDeviation="7.8166"
         id="feGaussianBlur5" />
    </filter>
    <linearGradient
       id="a"
       y2="18.0419"
       gradientUnits="userSpaceOnUse"
       x2="191.004"
       y1="131.443"
       x1="191.004">
      <stop
         stop-color="#fff"
         offset="0"
         id="stop8" />
      <stop
         stop-color="#fff"
         offset=".445596"
         id="stop10" />
      <stop
         stop-color="#bbb"
         offset="1"
         id="stop12" />
    </linearGradient>
  </defs>
  <g
     fill="url(#a)"
     id="g63"
     style="fill:#ffffff;fill-opacity:1"
     transform="translate(156.643,54.0845)">
    <path
       d="m 394.921,26.8482 h -1.65375 v -7.235 h -2.275 v -1.3225 h 6.20625 v 1.3225 h -2.2775 v 7.235"
       id="path45"
       style="fill:#ffffff;fill-opacity:1" />
    <path
       d="M -137.883,131.443 V 18.042 h 30.1684 c 11.2418,0 18.5904,0.54125 22.0454,1.625 5.51762,1.75375 10.0684,5.49125 13.6529,11.2162 3.584,5.72375 5.3765,13.0988 5.3765,22.1238 0,8.19875 -1.54688,15.0712 -4.64162,20.6138 -3.09375,5.545 -6.96138,9.4375 -11.6025,11.6812 -4.64112,2.2425 -12.6352,3.36375 -23.9795,3.36375 h -12.2994 v 42.7775 h -18.7201 z m 18.7201,-94.2175 v 32.2562 h 10.3892 c 6.9775,0 11.7201,-0.49125 14.227,-1.4725 2.50638,-0.9825 4.5615,-2.7525 6.1645,-5.31125 1.60212,-2.55875 2.40338,-5.69875 2.40338,-9.42125 0,-3.77375 -0.827625,-6.9525 -2.481,-9.5375 -1.65475,-2.58375 -3.69575,-4.31625 -6.1255,-5.195 -2.42912,-0.87875 -7.57225,-1.31875 -15.4286,-1.31875 h -9.149"
       id="path47"
       style="fill:#ffffff;fill-opacity:1" />
    <path
       d="M 56.902,131.443 V 18.042 h 39.5288 c 10.1062,0 17.3262,1.02 21.6588,3.05625 4.33125,2.0375 7.89,5.56875 10.675,10.5975 2.78375,5.0275 4.17625,11.0488 4.17625,18.0612 0,8.87 -2.1275,16.0125 -6.38125,21.4275 -4.255,5.41375 -10.3012,8.8175 -18.1388,10.21 4.02125,2.88875 7.3475,6.0475 9.9775,9.47625 2.63,3.43 6.21375,9.58 10.7525,18.4488 l 11.2938,22.1238 h -22.3975 l -13.5862,-24.6762 c -4.89125,-8.92125 -8.2125,-14.5038 -9.965,-16.7475 -1.75375,-2.2425 -3.61,-3.79 -5.56875,-4.64125 -1.96125,-0.85 -5.105,-1.275 -9.4375,-1.275 h -3.8675 v 47.34 h -18.72 z m 18.72,-65.4425 h 13.9238 c 8.50875,0 13.9238,-0.37375 16.245,-1.12125 2.32,-0.7475 4.20125,-2.255 5.645,-4.525 1.44375,-2.26875 2.1675,-5.285 2.1675,-9.05 0,-3.61 -0.72375,-6.51 -2.1675,-8.7025 -1.44375,-2.19125 -3.4025,-3.7 -5.87875,-4.525 -1.7525,-0.5675 -6.8325,-0.85125 -15.2375,-0.85125 h -14.6975 v 28.775"
       id="path49"
       style="fill:#ffffff;fill-opacity:1" />
    <path
       d="M 175.026,131.443 V 37.2255 H 147.411 V 18.0417 h 73.8738 V 37.2255 H 193.746 v 94.2175 h -18.72"
       id="path51"
       style="fill:#ffffff;fill-opacity:1" />
    <path
       d="m 311.328,131.443 h -20.3538 l -8.14375,-25.6812 h -37.225 l -7.6875,25.6812 h -19.9575 l 36.21,-113.401 h 19.8838 l 37.2738,113.401 z M 276.7855,86.578 263.948,44.4968 251.3505,86.578 h 25.435"
       id="path53"
       style="fill:#ffffff;fill-opacity:1" />
    <path
       d="M 325.177,131.443 V 18.971 h 18.72 v 93.2888 h 46.7212 v 19.1838 H 325.177"
       id="path55"
       style="fill:#ffffff;fill-opacity:1" />
    <path
       d="M 29.2682,38.6782 C 21.592,22.2482 5.7695,18.9757 -7.4855,18.4419 h -0.23 c -13.255,0.53375 -29.0775,3.80625 -36.7538,20.2362 -3.27762,7.0175 -5.05838,18.4325 -5.343,29.7612 v 13.3712 c 0.284625,11.3288 2.06538,22.745 5.343,29.7625 7.67625,16.4288 23.4988,19.7012 36.7538,20.235 h 0.23 c 13.255,-0.53375 29.0775,-3.80625 36.7538,-20.235 3.2775,-7.0175 5.05875,-18.4338 5.34375,-29.7625 V 68.4393 c -0.2851,-11.3286 -2.0664,-22.7436 -5.3439,-29.7611 z m -16.6062,40.86 c -0.1375,7.4775 -0.99125,15.0112 -2.56625,19.6425 -3.6825,10.8438 -11.2788,13.0025 -17.6412,13.355 h -0.11 c -6.3625,-0.3525 -13.9575,-2.51125 -17.6412,-13.355 -1.57375,-4.63125 -2.4275,-12.165 -2.565,-19.6425 v -8.825 c 0.1375,-7.47875 0.99125,-15.0112 2.565,-19.6425 3.68375,-10.845 11.2788,-13.0038 17.6412,-13.3562 h 0.11 c 6.3625,0.3525 13.9588,2.51125 17.6412,13.3562 1.575,4.63125 2.42875,12.1638 2.56625,19.6425 v 8.825"
       id="path57"
       style="fill:#ffffff;fill-opacity:1" />
    <path
       d="m 438.733,53.6344 c 0,-21.6838 19.3725,-39.2625 43.27,-39.2625 23.8988,0 43.2688,17.5788 43.2688,39.2625 0,0 2.78,26.6775 -41.1325,49.4125 h 42.2012 v 27.7788 H 439.268 v -19.7662 l 48.4088,-46.8588 c 5.85375,-5.45875 6.2375,-9.3575 6.2375,-9.3575 0.395,-7.535 -5.415,-12.3825 -12.0975,-12.3825 -6.6825,0 -12.1,5.54375 -12.1,12.3825 h -30.8125 l -0.17125,-1.20875"
       id="path59"
       style="fill:#ffffff;fill-opacity:1" />
    <path
       d="m 406.534,26.8482 h -1.575 v -7.49125 l -2.36875,7.49125 h -0.81 l -2.3825,-7.49125 v 7.49125 h -1.26 v -8.5575 h 2.41375 l 1.7925,5.51 1.7625,-5.51 h 2.4275 v 8.5575"
       id="path61"
       style="fill:#ffffff;fill-opacity:1" />
  </g>
  <g
     fill="#74c0ec"
     id="g71"
     transform="translate(156.643,54.0845)">
    <path
       d="m 610.933,5.38318 c 0,12.98 -10.5225,23.5012 -23.5012,23.5012 -12.98,0 -23.5025,-10.5212 -23.5025,-23.5012 0,-12.9788 10.5225,-23.5012 23.5025,-23.5012 12.9788,0 23.5012,10.5225 23.5012,23.5012"
       id="path65" />
    <path
       d="m 548.526,10.0782 40.615,30.945 c 0,0 1.41625,0.7775 1.63625,4.07125 l 6.37,28.3275 26.7862,19.7612 c 0,0 4.35875,14.2625 -10.3638,12.8425 l -27.621,-20.5291 c 0,0 -1.6925,-1.29375 -2.85625,-5.05 l -5.26875,-22.8362 -29.6438,34.9138 27.0062,37.1088 c 0,0 5.93125,8.12625 -0.65625,14.9325 l -27.4488,26.7888 v -27.8862 l 6.3675,-5.27125 c 0,0 1.7575,-1.3175 0,-3.2925 l -6.3675,-7.905 V 10.1813 l 1.445,-0.10375"
       id="path67" />
    <path
       d="m 544.043,187.056 h 4.24805 V -42.908 H 544.043 Z"
       id="path69" />
  </g>
</svg>
